{
    "asset" : {
        "generator" : "Khronos glTF Blender I/O v1.3.48",
        "version" : "2.0"
    },
    "scene" : 0,
    "scenes" : [
        {
            "name" : "Scene",
            "nodes" : [
                0
            ]
        }
    ],
    "nodes" : [
        {
            "mesh" : 0,
            "name" : "Body",
            "rotation" : [
                0.7071068286895752,
                0,
                0,
                0.7071067094802856
            ],
            "scale" : [
                0.010000000707805157,
                0.010000000707805157,
                0.010000000707805157
            ]
        }
    ],
    "materials" : [
        {
            "doubleSided" : true,
            "emissiveFactor" : [
                0,
                0,
                0
            ],
            "name" : "Sculpt_material",
            "normalTexture" : {
                "index" : 0,
                "scale" : 0.30000001192092896,
                "texCoord" : 0
            },
            "pbrMetallicRoughness" : {
                "baseColorTexture" : {
                    "index" : 1,
                    "texCoord" : 0
                },
                "metallicFactor" : 1,
                "roughnessFactor" : 0.858578622341156
            }
        }
    ],
    "meshes" : [
        {
            "name" : "Mesh",
            "primitives" : [
                {
                    "attributes" : {
                        "POSITION" : 0,
                        "NORMAL" : 1,
                        "TEXCOORD_0" : 2
                    },
                    "indices" : 3,
                    "material" : 0
                }
            ]
        }
    ],
    "textures" : [
        {
            "source" : 0
        },
        {
            "source" : 1
        }
    ],
    "images" : [
        {
            "mimeType" : "image/png",
            "name" : "Sculpt_texture_normal",
            "uri" : "Sculpt_texture_normal.png"
        },
        {
            "mimeType" : "image/png",
            "name" : "Sculpt_texture_albedo",
            "uri" : "Sculpt_texture_albedo.png"
        }
    ],
    "accessors" : [
        {
            "bufferView" : 0,
            "componentType" : 5126,
            "count" : 48048,
            "max" : [
                638.288330078125,
                475.9394836425781,
                559.591796875
            ],
            "min" : [
                -591.584716796875,
                -470.31256103515625,
                -1177.642822265625
            ],
            "type" : "VEC3"
        },
        {
            "bufferView" : 1,
            "componentType" : 5126,
            "count" : 48048,
            "type" : "VEC3"
        },
        {
            "bufferView" : 2,
            "componentType" : 5126,
            "count" : 48048,
            "type" : "VEC2"
        },
        {
            "bufferView" : 3,
            "componentType" : 5123,
            "count" : 285354,
            "type" : "SCALAR"
        }
    ],
    "bufferViews" : [
        {
            "buffer" : 0,
            "byteLength" : 576576,
            "byteOffset" : 0
        },
        {
            "buffer" : 0,
            "byteLength" : 576576,
            "byteOffset" : 576576
        },
        {
            "buffer" : 0,
            "byteLength" : 384384,
            "byteOffset" : 1153152
        },
        {
            "buffer" : 0,
            "byteLength" : 570708,
            "byteOffset" : 1537536
        }
    ],
    "buffers" : [
        {
            "byteLength" : 2108244,
            "uri" : "god-zeus.bin"
        }
    ]
}
